<svg width="32" height="32" viewBox="0 0 32 32" fill="none" xmlns="http://www.w3.org/2000/svg">
<path d="M6.66666 6.66667H9.33332V9.33334H6.66666V6.66667ZM12 12H9.33332V9.33334H12V12ZM14.6667 14.6667H12V12H14.6667V14.6667ZM17.3333 14.6667H14.6667V17.3333H12V20H9.33332V22.6667H6.66666V25.3333H9.33332V22.6667H12V20H14.6667V17.3333H17.3333V20H20V22.6667H22.6667V25.3333H25.3333V22.6667H22.6667V20H20V17.3333H17.3333V14.6667ZM20 12V14.6667H17.3333V12H20ZM22.6667 9.33334V12H20V9.33334H22.6667ZM22.6667 9.33334V6.66667H25.3333V9.33334H22.6667Z" fill="currentColor"/>
</svg>
