<svg width="32" height="32" viewBox="0 0 32 32" fill="none" xmlns="http://www.w3.org/2000/svg">
<path d="M8 2.66667H18.6667V5.33333H16V8H13.3333V5.33333H8V2.66667ZM5.33334 8V5.33333H8V8H5.33334ZM5.33334 21.3333H2.66667V8H5.33334V21.3333ZM8 24H5.33334V21.3333H8V24ZM10.6667 26.6667H8V24H10.6667V26.6667ZM24 26.6667V29.3333H10.6667V26.6667H24ZM26.6667 24V26.6667H24V24H26.6667ZM24 18.6667H26.6667V24H29.3333V13.3333H26.6667V16H24V18.6667ZM16 18.6667V21.3333H24V18.6667H16ZM13.3333 16H16V18.6667H13.3333V16ZM13.3333 16V8H10.6667V16H13.3333Z" fill="white"/>
</svg>
