<svg width="32" height="32" viewBox="0 0 32 32" fill="none" xmlns="http://www.w3.org/2000/svg">
<path d="M9.33333 2.66667V5.33333H22.6667V2.66667H9.33333ZM22.6667 5.33333V8H25.3333V5.33333H22.6667ZM25.3333 8V18.6667H28V8H25.3333ZM25.3333 18.6667H14.6667V21.3333H25.3333V18.6667ZM14.6667 21.3333H12V24H14.6667V21.3333ZM14.6667 24V26.6667H17.3333V24H14.6667ZM14.6667 26.6667H9.33333V29.3333H14.6667V26.6667ZM9.33333 26.6667V24H6.66667V26.6667H9.33333ZM6.66667 24V8H4V24H6.66667ZM6.66667 8H9.33333V5.33333H6.66667V8ZM12 8V10.6667H14.6667V8H12ZM14.6667 10.6667V13.3333H17.3333V10.6667H14.6667ZM17.3333 10.6667H20V8H17.3333V10.6667ZM20 10.6667V16H22.6667V10.6667H20ZM12 10.6667H9.33333V16H12V10.6667Z" fill="currentColor"/>
</svg>
