<svg width="32" height="32" viewBox="0 0 32 32" fill="none" xmlns="http://www.w3.org/2000/svg">
<path d="M6.66667 2.66667H12V5.33333H9.33333V8H6.66667V2.66667ZM6.66667 16H4V8H6.66667V16ZM9.33333 18.6667H6.66667V16H9.33333V18.6667ZM12 21.3333V18.6667H9.33333V21.3333H4V18.6667H1.33333V21.3333H4V24H9.33333V29.3333H12V24H14.6667V21.3333H12ZM12 21.3333V24H9.33333V21.3333H12ZM20 5.33333V8H12V5.33333H20ZM25.3333 8H22.6667V5.33333H20V2.66667H25.3333V8ZM25.3333 16V8H28V16H25.3333ZM22.6667 18.6667V16H25.3333V18.6667H22.6667ZM20 21.3333V18.6667H22.6667V21.3333H20ZM20 24H17.3333V21.3333H20V24ZM20 24H22.6667V29.3333H20V24Z" fill="currentColor"/>
</svg>
