<svg width="32" height="32" viewBox="0 0 32 32" fill="none" xmlns="http://www.w3.org/2000/svg">
<g clip-path="url(#clip0_10_6)">
<path d="M17.3333 0H14.6667V5.33333H17.3333V0ZM0 14.6667V17.3333H5.33333V14.6667H0ZM32 14.6667V17.3333H26.6667V14.6667H32ZM17.3333 32H14.6667V26.6667H17.3333V32ZM10.6667 8H21.3333V10.6667H10.6667V8ZM8 10.6667H10.6667V21.3333H8V10.6667ZM10.6667 24V21.3333H21.3333V24H10.6667ZM24 21.3333H21.3333V10.6667H24V21.3333ZM26.6667 2.66667H29.3333V5.33333H26.6667V2.66667ZM26.6667 5.33333V8H24V5.33333H26.6667ZM29.3333 29.3333H26.6667V26.6667H29.3333V29.3333ZM26.6667 26.6667H24V24H26.6667V26.6667ZM5.33333 2.66667H2.66667V5.33333H5.33333V8H8V5.33333H5.33333V2.66667ZM2.66667 29.3333H5.33333V26.6667H8V24H5.33333V26.6667H2.66667V29.3333Z" fill="currentColor"/>
</g>
<defs>
<clipPath id="clip0_10_6">
<rect width="32" height="32" fill="currentColor"/>
</clipPath>
</defs>
</svg>
