<svg width="32" height="32" viewBox="0 0 32 32" fill="none" xmlns="http://www.w3.org/2000/svg">
<path d="M25.3333 2.6666H28V5.33327H25.3333V2.6666ZM28 21.3333V5.33327H30.6666V21.3333H28ZM28 21.3333V23.9999H25.3333V21.3333H28ZM1.33331 5.33327H3.99998V21.3333H1.33331V5.33327ZM3.99998 21.3333H6.66665V23.9999H3.99998V21.3333ZM3.99998 5.33327H6.66665V2.6666H3.99998V5.33327ZM6.66665 7.99993H9.33331V18.6666H6.66665V7.99993ZM9.33331 18.6666H12V21.3333H9.33331V18.6666ZM9.33331 7.99993H12V5.33327H9.33331V7.99993ZM22.6666 7.99993H25.3333V18.6666H22.6666V7.99993ZM22.6666 7.99993H20V5.33327H22.6666V7.99993ZM22.6666 18.6666V21.3333H20V18.6666H22.6666ZM14.6666 9.33327H20V17.3333H17.3333V29.3333H14.6666V17.3333H12V9.33327H14.6666ZM14.6666 14.6666H17.3333V11.9999H14.6666V14.6666Z" fill="currentColor"/>
</svg>
