<svg width="99" height="130" viewBox="0 0 99 130" fill="none" xmlns="http://www.w3.org/2000/svg">
<path d="M42.8627 54.9203C42.3438 55.2396 41.8794 55.2559 41.2618 55.3258C37.7284 55.7258 34.2109 56.2528 30.6745 56.6279C24.9603 57.2339 19.2354 57.5124 13.4914 57.5884C10.801 57.6241 7.48699 58.0247 4.86789 57.1829C-0.169635 55.5637 0.831027 47.9812 1.75146 44.2262C5.02776 30.8604 13.7648 17.5267 24.3776 8.81421C29.5434 4.57338 48.047 -4.54125 52.4468 5.65509C54.3099 9.97283 54.5019 15.4743 54.3465 20.0846C53.9782 31.0115 50.0197 41.855 46.4914 52.06C38.1022 76.3245 27.247 99.859 13.0645 121.304C12.5524 122.079 5.3264 134.112 7.1732 126.47C9.09524 118.517 12.8902 110.965 16.5652 103.716C23.008 91.0074 30.2377 78.6776 37.9533 66.7029C46.6197 53.2525 56.8366 41.1884 68.0503 29.7967C68.1606 29.6846 72.4063 24.8757 73.2372 25.6344C75.2576 27.4791 71.0156 36.6798 70.4836 38.0147C62.6838 57.5865 31.8735 112.86 42.7133 94.7935C49.0941 84.1587 56.2857 73.8914 63.9519 64.1415C64.1804 63.851 68.1771 58.2071 69.2456 59.8297C70.7865 62.1695 69.2816 67.8074 69.0748 70.3316C68.922 72.1981 66.6774 83.3833 71.2948 81.6447C75.4438 80.0824 78.6084 76.056 81.2844 72.765C87.0181 65.7134 91.8938 58.1602 97.0373 50.6939" stroke="currentColor" stroke-width="2" stroke-linecap="round"/>
</svg>
